<svg width="26" height="26" viewBox="0 0 26 26" fill="none" xmlns="http://www.w3.org/2000/svg">
<path d="M6.59998 25.2002V9.1002H1.39998V25.3002H6.59998V25.2002ZM3.99998 6.8002C5.79998 6.8002 6.89998 5.6002 6.89998 4.0002C6.89998 2.4002 5.79998 1.2002 3.99998 1.2002C2.29998 1.2002 1.09998 2.5002 1.09998 4.0002C1.09998 5.6002 2.19998 6.8002 3.99998 6.8002ZM9.39997 25.2002H14.5V16.2002C14.5 15.7002 14.5 15.2002 14.7 14.9002C15.1 13.9002 15.9 12.9002 17.3 12.9002C19.2 12.9002 19.9 14.4002 19.9 16.6002V25.3002H25V16.0002C25 11.0002 22.5 8.7002 19.1 8.7002C16.3 8.7002 15.1 10.3002 14.4 11.4002V9.1002H9.39997C9.49998 10.6002 9.39997 25.2002 9.39997 25.2002Z" fill="#B8A4FD"/>
<path d="M6.57364 25.2492V9.05567H1.42874V25.2492H6.57364ZM4.00223 6.84492C5.7959 6.84492 6.91281 5.60113 6.91281 4.04749C6.87863 2.45809 5.7959 1.24951 4.0364 1.24951C2.27535 1.24951 1.12531 2.45809 1.12531 4.04749C1.12531 5.60168 2.24169 6.84492 3.96857 6.84492H4.00223ZM9.42105 25.2492H14.5654V16.2069C14.5654 15.7231 14.5991 15.2388 14.7348 14.8937C15.1065 13.9262 15.9532 12.9251 17.3745 12.9251C19.2355 12.9251 19.9806 14.41 19.9806 16.5872V25.2492H25.125V15.9642C25.125 10.9907 22.5873 8.67592 19.2024 8.67592C16.4269 8.67592 15.2085 10.2984 14.5313 11.404H14.5654V9.05621H9.42105C9.48837 10.5752 9.42105 25.2498 9.42105 25.2492Z" fill="#FFFDF8"/>
</svg>
